<?xml version="1.0" encoding="iso-8859-1"?>
<!-- Generator: Adobe Illustrator 16.0.0, SVG Export Plug-In . SVG Version: 6.00 Build 0)  -->
<!DOCTYPE svg PUBLIC "-//W3C//DTD SVG 1.1//EN" "http://www.w3.org/Graphics/SVG/1.1/DTD/svg11.dtd">
<svg version="1.1" xmlns="http://www.w3.org/2000/svg" xmlns:xlink="http://www.w3.org/1999/xlink" x="0px" y="0px" width="512px"
	 height="512px" viewBox="0 0 512 512" style="enable-background:new 0 0 512 512;" xml:space="preserve">
<g id="Layer_2">
	<g>
		<circle style="fill:#FF642F;" cx="256" cy="256" r="256"/>
		<g>
			<g>
				<path style="fill:#FFFFFF;" d="M255.781,179.268c73.183,0,90.116,23.826,90.116,23.826l59.764-19.255
					c0,0-49.125-37.553-149.88-37.553V179.268z"/>
				<g>
					<g>
						
							<rect x="336.457" y="218.417" transform="matrix(-0.9915 -0.1299 0.1299 -0.9915 720.1525 503.8242)" style="fill:#E1E1E2;" width="80.104" height="20.014"/>
						<path style="fill:#FFFFFF;" d="M417.522,223.705l0.649-4.969c2.873-21.938-12.578-42.044-34.511-44.917
							c-21.938-2.871-42.041,12.587-44.909,34.511l-0.653,4.965L417.522,223.705z"/>
					</g>
				</g>
				<g>
					<path style="fill:#E1E1E2;" d="M394.17,176.724c4.348,2.379,7.45,4.344,9.325,5.598
						C400.688,180.067,397.563,178.17,394.17,176.724z"/>
					<path style="fill:#E1E1E2;" d="M405.661,183.839c0,0-0.732-0.558-2.166-1.518c0.647,0.522,1.293,1.043,1.906,1.603
						L405.661,183.839z"/>
					<path style="fill:#E1E1E2;" d="M375.964,173.567c-16.415-0.864-31.348,8.384-38.188,22.683c1.364,0.88,2.531,1.712,3.516,2.474
						C346.976,184.433,360.482,174.522,375.964,173.567z"/>
				</g>
			</g>
			<g>
				<path style="fill:#FFFFFF;" d="M256.774,179.268c-73.186,0-90.118,23.826-90.118,23.826l-59.764-19.255
					c0,0,49.128-37.553,149.882-37.553V179.268z"/>
				<g>
					<g>
						<polygon style="fill:#E1E1E2;" points="177.058,233.143 97.636,243.549 95.031,223.705 174.455,213.295 						"/>
						<path style="fill:#FFFFFF;" d="M95.031,223.705l-0.647-4.969c-2.873-21.938,12.576-42.044,34.509-44.917
							c21.938-2.871,42.043,12.587,44.911,34.511l0.651,4.965L95.031,223.705z"/>
					</g>
				</g>
				<g>
					<path style="fill:#E1E1E2;" d="M118.384,176.724c-4.348,2.379-7.451,4.344-9.326,5.598
						C111.866,180.067,114.991,178.17,118.384,176.724z"/>
					<path style="fill:#E1E1E2;" d="M106.893,183.839c0,0,0.732-0.558,2.165-1.518c-0.646,0.522-1.29,1.043-1.906,1.603
						L106.893,183.839z"/>
					<path style="fill:#E1E1E2;" d="M136.589,173.567c16.418-0.864,31.354,8.384,38.19,22.683c-1.364,0.88-2.534,1.712-3.516,2.474
						C165.58,184.433,152.071,174.522,136.589,173.567z"/>
				</g>
			</g>
			<polygon style="fill:#FFFFFF;" points="365.536,326.857 338.679,198.857 174.107,198.857 146.107,326.857 			"/>
			<path style="fill:#E1E1E2;" d="M328.964,198.857v-18.286c0,0-38,9.143-73.143,9.143s-73.143-9.143-73.143-9.143v18.286H328.964z"
				/>
			<rect x="146.107" y="326.857" style="fill:#E1E1E2;" width="219.429" height="36.571"/>
			<path style="fill:#C4C3C4;" d="M146.107,363.429c0,2.526,2.047,4.571,4.571,4.571h210.285c2.522,0,4.572-2.045,4.572-4.571
				H146.107z"/>
			<path style="fill:#E1E1E2;" d="M328.964,262.857c0,30.299-32.75,54.856-73.143,54.856c-40.395,0-73.143-24.558-73.143-54.856
				c0-30.295,32.748-54.857,73.143-54.857C296.214,208,328.964,232.563,328.964,262.857z"/>
			<ellipse style="fill:#C4C3C4;" cx="255.822" cy="251.429" rx="45.714" ry="34.285"/>
			<path style="fill:#FFFFFF;" d="M301.536,249.143c0,17.67-20.469,32-45.715,32c-25.245,0-45.714-14.33-45.714-32
				c0-17.669,20.469-32,45.714-32C281.067,217.143,301.536,231.474,301.536,249.143z"/>
		</g>
		<g>
			<path style="fill:#C4C3C4;" d="M255.821,210.286c39.884,0,72.29,23.95,73.103,53.714c0.014-0.382,0.04-0.759,0.04-1.143
				c0-30.295-32.75-54.857-73.143-54.857c-40.395,0-73.143,24.563-73.143,54.857c0,0.384,0.026,0.761,0.04,1.143
				C183.531,234.236,215.938,210.286,255.821,210.286z"/>
		</g>
	</g>
</g>
<g id="Layer_1">
</g>
</svg>
