<svg xmlns="http://www.w3.org/2000/svg" viewBox="0 0 45.84 45.84">
  <defs>
    <style>
      .cls-1 {
        fill: #5b4c91;
      }

      .cls-2 {
        fill: #3e3277;
        opacity: 0.47;
      }

      .cls-3 {
        fill: #fff;
      }
    </style>
  </defs>
  <title>Asset 2</title>
  <g id="Layer_2" data-name="Layer 2">
    <g id="Layer_1-2" data-name="Layer 1">
      <g>
        <circle class="cls-1" cx="22.92" cy="22.92" r="17.67"/>
        <path class="cls-2" d="M20.36,34.79,27,40.12A17.91,17.91,0,0,0,40,27.34l-3.23-8.11-10.62-4Z"/>
        <path class="cls-1" d="M22.92,0A22.92,22.92,0,1,0,45.84,22.92,22.92,22.92,0,0,0,22.92,0Zm0,43.23A20.31,20.31,0,1,1,43.23,22.92,20.31,20.31,0,0,1,22.92,43.23Z"/>
        <g>
          <path class="cls-3" d="M21.59,31.33a2.94,2.94,0,0,0,.25-.58,2.31,2.31,0,0,0,0-.8,2,2,0,0,0-.15-.45A1.37,1.37,0,0,0,21.4,29a1.35,1.35,0,0,0-.47-.35,2.29,2.29,0,0,0-.38-.16,2.17,2.17,0,0,0-.55-.06,3.5,3.5,0,0,0-.54.11l-.16,0c0-.05,0-.11,0-.16a1.91,1.91,0,0,0-.6-1.1,2,2,0,0,0-.43-.27,2.07,2.07,0,0,0-.47-.17,2.76,2.76,0,0,0-.4,0,2,2,0,0,0-.63.13l-.06,0a2,2,0,0,1-.08-.28,1.54,1.54,0,0,0-.17-.51,1.58,1.58,0,0,0-.49-.58,3.08,3.08,0,0,0-.42-.23l-.25-.11a.1.1,0,0,1,0-.07c0-.08,0-.16,0-.25a1.25,1.25,0,0,0-.27-.83c-.18-.22-.39-.43-.59-.63l-1-1L12.79,22a.08.08,0,0,1,0-.14l1.61-1.6,1.74-1.75,1.4-1.39.9-.91c0-.05.09,0,.13,0l.93.92.08.1-.86.85c-.34.34-.68.67-1,1a4,4,0,0,0-.45.67,4.15,4.15,0,0,0-.28.61,1.75,1.75,0,0,0-.07.38,3.45,3.45,0,0,0-.05.51,2.88,2.88,0,0,0,.06.56,4,4,0,0,0,.16.5c.06.17.12.34.19.51s.15.32.22.48.09.23.14.34l.15.33.21.5.21.47.15.34.13.31.16.34.17.39a.6.6,0,0,1,0,.08l.38-.11.56-.22a2.32,2.32,0,0,0,.84-.67,2.87,2.87,0,0,0,.28-.42,2.27,2.27,0,0,0,.16-.35,2.12,2.12,0,0,0,.07-.3l.1-.5a.63.63,0,0,0,0-.12c0-.32,0-.64,0-1,0-.13,0-.26-.05-.39,0-.3,0-.6-.06-.9,0-.13.08-.19.16-.26a.13.13,0,0,1,.12,0l.87.57.78.49c.22.14.43.28.65.41s.39.21.59.31a2.43,2.43,0,0,0,.57.18,3.36,3.36,0,0,0,1,.1,4.18,4.18,0,0,0,.59-.07A3.29,3.29,0,0,0,27,23a6.54,6.54,0,0,0,.64-.33c.09,0,.16-.11.25-.17a.12.12,0,0,1,.17,0L30,24.48l1.59,1.59a.8.8,0,0,1,.21.37.57.57,0,0,1,0,.3,1,1,0,0,1-.28.49c-.19.17-.35.37-.54.52a.69.69,0,0,1-.68.13,1.34,1.34,0,0,1-.53-.4l-.59-.58L29,26.66l-.51.48c.39.4.76.79,1.13,1.18a.44.44,0,0,1,.1.24.8.8,0,0,1-.05.48,1.22,1.22,0,0,1-.24.31c-.15.14-.28.3-.44.44a.76.76,0,0,1-.52.2.7.7,0,0,1-.55-.23c-.12-.13-.25-.25-.38-.37l-.65-.64-.47.46s0,.07,0,.09c.25.25.51.49.75.75a1,1,0,0,1,.17.32.61.61,0,0,1,0,.44.94.94,0,0,1-.23.32c-.17.18-.35.36-.53.53a.67.67,0,0,1-.39.17.87.87,0,0,1-.74-.32l-.6-.6a.11.11,0,0,0-.11,0l-.38.37c-.05,0-.05.08,0,.13a6.14,6.14,0,0,1,.51.53.68.68,0,0,1,.13.65,1.38,1.38,0,0,1-.39.53,4.9,4.9,0,0,1-.4.39.69.69,0,0,1-.71.11,1.39,1.39,0,0,1-.23-.13.19.19,0,0,1-.07-.12c0-.13,0-.26,0-.4a1.56,1.56,0,0,0-.21-.7,1.63,1.63,0,0,0-.44-.53,1.55,1.55,0,0,0-.36-.21C22,31.46,21.79,31.4,21.59,31.33Z"/>
          <path class="cls-3" d="M32.16,22.42l-1.6,1.63-.42-.44L28.93,22.4l-.85-.85c-.05-.05-.08-.06-.13,0a3.38,3.38,0,0,1-.42.4,2,2,0,0,1-.56.33c-.13,0-.26.11-.39.16a1.1,1.1,0,0,1-.24.07,3.5,3.5,0,0,1-.92.06,4,4,0,0,1-.47-.1,3.56,3.56,0,0,1-.44-.13,2.48,2.48,0,0,1-.35-.19l-.44-.28-.38-.24-.43-.28-.72-.46-.6-.38-.34-.22-.76.75a.2.2,0,0,0-.05.13c0,.14,0,.29,0,.43a7.38,7.38,0,0,0,.06.88,6,6,0,0,1,0,1.2,2.75,2.75,0,0,1-.1.55c0,.12-.08.24-.12.36a1.28,1.28,0,0,1-.38.54,5,5,0,0,1-.47.35l-.13.06c-.06,0-.12,0-.16-.11l-.22-.52-.2-.49-.27-.61-.14-.32-.15-.36L18,22.63l-.14-.31-.1-.25-.1-.29v0a2.48,2.48,0,0,1-.06-.78,2.94,2.94,0,0,1,.26-.81,4.52,4.52,0,0,1,.88-1.1l1-1,1.1-1.09,0,0c.08-.05.12-.16.24-.13l.29,0,0,0,.55.07.61.11h0l.57.07.58.11h0l.57.07.57.1a.25.25,0,0,0,.25-.06l.82-.84s.07,0,.11,0l1.17,1.17,2,2c.2.2.39.42.59.62l.66.63,1.52,1.53Z"/>
          <path class="cls-3" d="M29.53,11.93l.73.75,1,1,1.22,1.21,1.21,1.21,1.16,1.15,1.53,1.52.39.4c.06.06,0,.1,0,.15l-1.22,1.23L34.17,22l-.65.64a.08.08,0,0,1-.13,0l-1.6-1.6-1.64-1.63-2-2-2-2c-.1-.1-.1-.1,0-.2l1.34-1.33,1.23-1.22Zm3.19,7.88,1,1,.94-.92c.05-.05.05-.08,0-.13l-.9-.9s-.08,0-.13,0Z"/>
          <path class="cls-3" d="M15.36,12l.37.36L18.44,15c.09.09.09.1,0,.18l-2.32,2.31-2,2L12,21.67l-.46.45c-.07.07-.12.07-.19,0L9.82,20.61l-.32-.31L8.33,19.12l-.06-.07Zm-3.94,8.31a.69.69,0,0,0,.73-.7.71.71,0,0,0-.7-.72.7.7,0,0,0-.76.71A.69.69,0,0,0,11.42,20.26Z"/>
          <path class="cls-3" d="M21.19,30.3a1.07,1.07,0,0,1-.39.88l-1.1,1.1c-.28.28-.55.56-.84.82a.53.53,0,0,1-.44.12c-.27,0-.4-.24-.57-.4s-.38-.38-.57-.58a.58.58,0,0,1-.11-.57,1.54,1.54,0,0,1,.4-.49c.42-.44.85-.86,1.28-1.29.16-.16.3-.32.47-.46a.92.92,0,0,1,.49-.23,1.59,1.59,0,0,1,.24,0,1.17,1.17,0,0,1,.9.44A1,1,0,0,1,21.19,30.3Z"/>
          <path class="cls-3" d="M17.46,27.58a1.14,1.14,0,0,1,.85.39,1.12,1.12,0,0,1,.23.4,1.25,1.25,0,0,1,.05.39,1,1,0,0,1-.32.75L16.8,31a.61.61,0,0,1-.63.11,1.31,1.31,0,0,1-.37-.32c-.22-.21-.43-.43-.63-.65a.49.49,0,0,1-.1-.23.58.58,0,0,1,.22-.58c.07-.06.13-.13.2-.2.37-.37.74-.74,1.11-1.11a1.56,1.56,0,0,1,.4-.3A2.06,2.06,0,0,1,17.46,27.58Z"/>
          <path class="cls-3" d="M21.39,32a1.18,1.18,0,0,1,.91.46,1.44,1.44,0,0,1,.14.29,1.11,1.11,0,0,1,.06.58.75.75,0,0,1-.21.49c-.28.31-.58.6-.87.9a3.26,3.26,0,0,1-.29.25A.27.27,0,0,1,21,35a.66.66,0,0,1-.66-.24c-.22-.24-.46-.47-.7-.7a.58.58,0,0,1-.13-.56.72.72,0,0,1,.24-.34l.87-.86a.85.85,0,0,1,.39-.22Z"/>
          <path class="cls-3" d="M16,27.15a1.21,1.21,0,0,1-.36.81c-.2.21-.42.4-.61.61a.63.63,0,0,1-.66.16.58.58,0,0,1-.23-.17c-.24-.23-.46-.47-.7-.69a.61.61,0,0,1-.19-.61.66.66,0,0,1,.18-.29c.23-.23.46-.46.7-.68a.79.79,0,0,1,.46-.22,1.71,1.71,0,0,1,.26,0,1.16,1.16,0,0,1,.89.45.91.91,0,0,1,.18.38C15.93,26.95,16,27,16,27.15Z"/>
        </g>
      </g>
    </g>
  </g>
</svg>
